Coordinates
version=1
nRows=11
nColumns=40
inDegrees=yes

Units are S.I. units (second, meters, Newtons, ...)
Angles are in degrees.

endheader
time	pelvis_tilt	pelvis_list	pelvis_rotation	pelvis_tx	pelvis_ty	pelvis_tz	hip_flexion_r	hip_adduction_r	hip_rotation_r	knee_angle_r	knee_angle_r_beta	ankle_angle_r	subtalar_angle_r	mtp_angle_r	hip_flexion_l	hip_adduction_l	hip_rotation_l	knee_angle_l	knee_angle_l_beta	ankle_angle_l	subtalar_angle_l	mtp_angle_l	lumbar_extension	lumbar_bending	lumbar_rotation	arm_flex_r	arm_add_r	arm_rot_r	elbow_flex_r	pro_sup_r	wrist_flex_r	wrist_dev_r	arm_flex_l	arm_add_l	arm_rot_l	elbow_flex_l	pro_sup_l	wrist_flex_l	wrist_dev_l
      3.45000000	     -4.60860948	     -5.72259401	      0.19349941	      0.90774091	      0.92974879	      0.55824892	     13.29261859	      4.08741493	    -17.31889976	     14.83246708	     14.83246708	      7.60283376	     -3.31236409	     -5.21342338	     34.58916785	    -14.65056979	      0.64383710	     61.13510099	     61.13510099	     11.90261154	    -18.80104745	     15.06219006	    -14.01507500	      6.60143503	      2.36903479	     26.68627933	    -14.22879557	      6.34260966	     70.33097325	     45.73372415	      0.00000000	      0.00000000	      0.77027710	     -7.38641026	     -5.36311851	     43.93452195	     45.91269024	      0.00000000	      0.00000000
      3.46192857	     -4.69923368	     -5.76501505	      0.35885184	      0.90587663	      0.92993529	      0.55889968	     12.64618644	      4.25555846	    -17.39210337	     14.34094320	     14.34094320	      7.82344541	     -3.17584519	     -5.21782228	     35.99183842	    -14.73127269	      0.53250560	     59.18824976	     59.18824976	     11.95352190	    -18.88962144	     15.15063855	    -14.07361979	      6.52596493	      1.68884835	     29.13776493	    -13.50974158	      6.62782358	     73.24236658	     45.63169045	      0.00000000	      0.00000000	     -0.46867544	     -7.53274906	     -5.37819629	     42.08019976	     45.90349708	      0.00000000	      0.00000000
      3.47385714	     -4.80973185	     -5.80545354	      0.49037399	      0.90397709	      0.93006941	      0.55944873	     12.04719716	      4.40065734	    -17.51126659	     13.87887165	     13.87887165	      7.98900061	     -2.93676188	     -5.34248983	     37.19538733	    -14.74890219	      0.40655011	     56.93769426	     56.93769426	     11.80861471	    -18.92589892	     15.03737035	    -14.17469541	      6.49199074	      2.15361453	     30.70392623	    -14.43395834	      7.79342089	     78.19738380	     45.41821234	      0.00000000	      0.00000000	     -0.01256872	     -7.04550333	     -6.09486189	     37.29603934	     46.04173260	      0.00000000	      0.00000000
      3.48578571	     -4.88468197	     -5.80918223	      0.61455961	      0.90217832	      0.93021058	      0.55995653	     11.42184752	      4.51236671	    -17.54978031	     13.43799571	     13.43799571	      8.22672908	     -2.75326899	     -5.34285861	     38.15388760	    -14.64364662	      0.31140964	     54.47421067	     54.47421067	     11.68795756	    -18.91742128	     15.31603778	    -14.29468866	      6.39418254	      1.60635856	     33.23503427	    -13.66278067	      7.75203354	     80.72745104	     45.34617319	      0.00000000	      0.00000000	     -1.12075966	     -7.13297943	     -6.10611836	     35.63509637	     46.03388295	      0.00000000	      0.00000000
      3.49771429	     -5.01769464	     -5.87297306	      0.71888739	      0.90043124	      0.93014522	      0.56027965	     10.86901910	      4.64183706	    -17.77264442	     13.02168142	     13.02168142	      8.44590976	     -2.21616363	     -5.44504018	     39.02002684	    -14.49594991	      0.36482667	     51.87999193	     51.87999193	     11.46235638	    -18.84104040	     15.20416953	    -14.31221691	      6.39875821	      1.89290361	     35.09712681	    -14.25200590	      8.54491268	     84.64168557	     45.19899096	      0.00000000	      0.00000000	     -0.83874825	     -6.83057113	     -6.51298711	     31.50861535	     46.12726240	      0.00000000	      0.00000000
      3.50964286	     -5.12511503	     -5.84356262	      0.80097208	      0.89884541	      0.93003895	      0.56052793	     10.31476433	      4.68608012	    -17.82072730	     12.65868982	     12.65868982	      8.70919073	     -2.00710749	     -5.47407885	     39.70284187	    -14.16949155	      0.52908459	     49.24077039	     49.24077039	     11.27300655	    -18.67687798	     15.35196435	    -14.37034091	      6.27134891	      1.63385548	     37.39450422	    -13.60150978	      8.37650397	     86.94043611	     45.14057250	      0.00000000	      0.00000000	     -1.76206084	     -6.84710254	     -6.61410158	     30.02033926	     46.13829022	      0.00000000	      0.00000000
      3.52157143	     -5.39266193	     -5.84712179	      0.80769895	      0.89717239	      0.92963302	      0.56062890	      9.99491030	      4.73863552	    -17.84506455	     12.39616779	     12.39616779	      8.96519039	     -1.82639155	     -5.54685310	     40.45457700	    -13.86539415	      0.73590404	     46.58815744	     46.58815744	     11.08329814	    -18.26564879	     15.56790386	    -14.21977942	      6.18074056	      1.79744461	     39.74592236	    -13.55049174	      8.12248477	     88.43317438	     45.11091477	      0.00000000	      0.00000000	     -2.60305962	     -6.78748000	     -6.64463324	     29.18951033	     46.13338889	      0.00000000	      0.00000000
      3.53350000	     -5.44136135	     -5.87434607	      0.85992959	      0.89594188	      0.92950671	      0.56050626	      9.31484852	      4.76152999	    -18.33626760	     11.98264466	     11.98264466	      9.31021719	     -0.69499545	     -5.67804411	     40.71956673	    -13.51380928	      1.09788122	     43.71386834	     43.71386834	     10.33935542	    -17.94371533	     13.92492220	    -14.35948614	      6.18515772	      2.12369796	     41.17858476	    -14.06025692	      8.77554181	     92.82860732	     44.96349570	      0.00000000	      0.00000000	     -2.26881070	     -6.60128013	     -7.15361111	     25.51570720	     46.27433502	      0.00000000	      0.00000000
      3.54542857	     -5.61352619	     -5.87881779	      0.83184367	      0.89467434	      0.92913155	      0.56035624	      8.82994245	      4.81280546	    -18.29743883	     11.65144299	     11.65144299	      9.58009877	     -0.43234487	     -5.71606688	     41.10091618	    -13.17469486	      1.48420855	     41.05025960	     41.05025960	     10.27806392	    -17.16221140	     13.97175249	    -14.28523900	      6.12899186	      2.04674590	     43.25092777	    -13.58685176	      8.54231446	     94.49001704	     44.92870037	      0.00000000	      0.00000000	     -3.19223961	     -6.62748907	     -7.24024310	     24.82653283	     46.28033503	      0.00000000	      0.00000000
      3.55735714	     -5.73544753	     -5.95529710	      0.78091826	      0.89368447	      0.92875267	      0.56011847	      8.21625836	      4.93115189	    -18.44586969	     11.22232502	     11.22232502	      9.86242889	      0.17005606	     -5.77034364	     41.30807118	    -12.95671670	      1.86521351	     38.41664967	     38.41664967	     10.25189563	    -16.11796045	     13.71835725	    -14.26686844	      6.15889239	      1.92815920	     45.05266854	    -13.18531235	      8.61682890	     96.59181133	     44.87031918	      0.00000000	      0.00000000	     -4.08944900	     -6.62027113	     -7.34152819	     24.13996764	     46.29169549	      0.00000000	      0.00000000
      3.56928571	     -5.90840984	     -6.04264795	      0.68501156	      0.89286422	      0.92826175	      0.55978507	      7.67904063	      5.04911657	    -18.53317129	     10.85636910	     10.85636910	     10.14847479	      0.73101593	     -5.83127508	     41.46999598	    -12.81707314	      2.13261727	     35.86965510	     35.86965510	     10.25339676	    -14.87493288	     13.56733422	    -14.12302736	      6.18123388	      2.06482153	     46.78148728	    -13.09566962	      8.61650198	     98.25748440	     44.82764812	      0.00000000	      0.00000000	     -4.90688243	     -6.59961392	     -7.41464560	     23.72735358	     46.29562233	      0.00000000	      0.00000000
